<?xml version="1.0" encoding="UTF-8" standalone="no"?>
<!-- Created with Inkscape (http://www.inkscape.org/) -->

<svg
   xmlns:dc="http://purl.org/dc/elements/1.1/"
   xmlns:cc="http://creativecommons.org/ns#"
   xmlns:rdf="http://www.w3.org/1999/02/22-rdf-syntax-ns#"
   xmlns:svg="http://www.w3.org/2000/svg"
   xmlns="http://www.w3.org/2000/svg"
   xmlns:sodipodi="http://sodipodi.sourceforge.net/DTD/sodipodi-0.dtd"
   xmlns:inkscape="http://www.inkscape.org/namespaces/inkscape"
   width="210mm"
   height="297mm"
   id="svg2"
   version="1.1"
   inkscape:version="0.48.5 r10040"
   sodipodi:docname="Neues Dokument 1">
  <defs
     id="defs4" />
  <sodipodi:namedview
     id="base"
     pagecolor="#ffffff"
     bordercolor="#666666"
     borderopacity="1.0"
     inkscape:pageopacity="0.0"
     inkscape:pageshadow="2"
     inkscape:zoom="1.4"
     inkscape:cx="354.05834"
     inkscape:cy="729.2316"
     inkscape:document-units="px"
     inkscape:current-layer="layer1"
     showgrid="false"
     inkscape:window-width="956"
     inkscape:window-height="1161"
     inkscape:window-x="1920"
     inkscape:window-y="18"
     inkscape:window-maximized="0" />
  <metadata
     id="metadata7">
    <rdf:RDF>
      <cc:Work
         rdf:about="">
        <dc:format>image/svg+xml</dc:format>
        <dc:type
           rdf:resource="http://purl.org/dc/dcmitype/StillImage" />
        <dc:title></dc:title>
      </cc:Work>
    </rdf:RDF>
  </metadata>
  <g
     inkscape:label="Ebene 1"
     inkscape:groupmode="layer"
     id="layer1">
    <g
       style="font-size:40px;font-style:normal;font-weight:normal;line-height:125%;letter-spacing:0px;word-spacing:0px;fill:#000000;fill-opacity:1;stroke:none;font-family:Sans"
       id="flowRoot2985">
      <path
         d="m 55.8695,48.898646 19.296,0 c 0.719971,0.04804 1.36797,0.168043 1.944,0.36 0.623969,0.144042 1.175968,0.480042 1.656,1.008 0.479967,0.480041 0.791967,1.03204 0.936,1.656 0.191967,0.576039 0.287966,1.224039 0.288,1.944 l 0,14.256 c -3.4e-5,0.672023 -0.09603,1.296022 -0.288,1.872 -0.192033,0.528021 -0.480033,1.032021 -0.864,1.512 -0.480032,0.52802 -1.032031,0.912019 -1.656,1.152 -0.57603,0.192019 -1.22403,0.288019 -1.944,0.288 l -13.752,-0.072 c -0.04801,0.04802 -0.09602,0.07202 -0.144,0.072 -1.5e-5,1.9e-5 -0.02402,0.02402 -0.072,0.072 -0.04801,1.9e-5 -0.09602,0.02402 -0.144,0.072 -1.5e-5,1.9e-5 -1.5e-5,1.9e-5 0,0 -0.04801,1.9e-5 -0.09602,0.02402 -0.144,0.072 -1.5e-5,1.8e-5 -1.5e-5,1.8e-5 0,0 -1.5e-5,1.8e-5 -0.02401,0.02402 -0.072,0.072 -1.4e-5,1.8e-5 -1.4e-5,0.02402 0,0.072 -1.4e-5,1.8e-5 -0.02401,0.02402 -0.072,0.072 -1.4e-5,1.8e-5 -1.4e-5,0.02402 0,0.072 -0.04801,0.04802 -0.07201,0.09602 -0.072,0.144 -1.4e-5,1.8e-5 -1.4e-5,0.02402 0,0.072 l 0,17.712 c -1.4e-5,0.096 -1.4e-5,0.168 0,0.216 -1.4e-5,0 -0.02401,0.024 -0.072,0.072 -1.4e-5,0 -1.4e-5,0.024 0,0.072 -1.4e-5,0 -1.4e-5,0 0,0 -1.4e-5,0.048 -0.02401,0.096 -0.072,0.144 -1.4e-5,0.048 -1.4e-5,0.072 0,0.072 -0.04801,0.048 -0.120014,0.096 -0.216,0.144 -0.04801,0 -0.120014,0 -0.216,0 -1.4e-5,0 -0.02401,0 -0.072,0 -1.4e-5,0 -0.02401,0 -0.072,0 l -4.176,0 c -0.720009,0 -1.368008,-0.096 -1.944,-0.288 -0.576007,-0.24 -1.104006,-0.6 -1.584,-1.08 -0.480005,-0.527999 -0.816005,-1.055998 -1.008,-1.584 -0.144005,-0.527997 -0.216005,-1.127996 -0.216,-1.8 l 0,-33.552 c -5e-6,-0.671961 0.096,-1.295961 0.288,-1.872 0.239995,-0.62396 0.599994,-1.175959 1.08,-1.656 0.479993,-0.431958 0.983993,-0.743958 1.512,-0.936 0.575992,-0.239957 1.199991,-0.359957 1.872,-0.36 l 0,-0.072 m 0.864,19.152 17.712,0 c 0.04797,0.04802 0.07197,0.07202 0.072,0.072 0.04797,2.4e-5 0.07197,2.4e-5 0.072,0 0.09597,2.4e-5 0.167972,-0.02398 0.216,-0.072 0.09597,-0.04798 0.167971,-0.09598 0.216,-0.144 -2.9e-5,2.4e-5 -2.9e-5,-0.02398 0,-0.072 0.04797,-0.04798 0.07197,-0.09598 0.072,-0.144 -2.9e-5,2.4e-5 -2.9e-5,2.4e-5 0,0 -2.9e-5,-0.04798 -2.9e-5,-0.07198 0,-0.072 0.04797,-0.04798 0.07197,-0.07198 0.072,-0.072 -2.9e-5,-0.04798 -2.9e-5,-0.09598 0,-0.144 l 0,-13.032 c -2.9e-5,3.7e-5 -2.9e-5,3.7e-5 0,0 -2.9e-5,-0.04796 -0.02403,-0.09596 -0.072,-0.144 -2.9e-5,3.7e-5 -2.9e-5,3.7e-5 0,0 -2.9e-5,-0.04796 -2.9e-5,-0.07196 0,-0.072 -2.9e-5,-0.04796 -0.02403,-0.09596 -0.072,-0.144 -2.9e-5,-0.04796 -2.9e-5,-0.07196 0,-0.072 -0.04803,-0.04796 -0.120028,-0.09596 -0.216,-0.144 -0.04803,-0.04796 -0.120028,-0.07196 -0.216,-0.072 -2.8e-5,3.8e-5 -0.02403,3.8e-5 -0.072,0 -2.8e-5,3.8e-5 -0.02403,3.8e-5 -0.072,0 l -17.712,-0.072 c -0.04801,0.04804 -0.09601,0.07204 -0.144,0.072 -1e-5,3.8e-5 -0.02401,0.02404 -0.072,0.072 -0.04801,3.8e-5 -0.09601,0.02404 -0.144,0.072 -1e-5,3.8e-5 -1e-5,3.8e-5 0,0 -0.04801,3.8e-5 -0.09601,0.02404 -0.144,0.072 -1e-5,3.8e-5 -1e-5,3.8e-5 0,0 -1e-5,3.8e-5 -0.02401,0.02404 -0.072,0.072 -10e-6,3.8e-5 -10e-6,0.02404 0,0.072 -10e-6,3.8e-5 -0.02401,0.02404 -0.072,0.072 -1e-5,3.8e-5 -1e-5,0.02404 0,0.072 -0.04801,0.04804 -0.07201,0.09604 -0.072,0.144 -1e-5,3.7e-5 -1e-5,0.02404 0,0.072 l 0,12.888 c -1e-5,0.09602 -1e-5,0.168024 0,0.216 -1e-5,2.4e-5 -1e-5,2.4e-5 0,0 -1e-5,0.09602 0.02399,0.192024 0.072,0.288 0.04799,0.04802 0.09599,0.09602 0.144,0.144 -1e-5,2.4e-5 0.02399,0.02402 0.072,0.072 0.04799,2.4e-5 0.09599,2.4e-5 0.144,0 -1e-5,2.4e-5 -1e-5,2.4e-5 0,0 0.04799,2.4e-5 0.07199,2.4e-5 0.072,0 0.04799,0.04802 0.07199,0.07202 0.072,0.072 0.04799,2.4e-5 0.09599,2.4e-5 0.144,0 l 0,-0.072"
         style="font-size:72px;font-variant:normal;font-weight:100;font-stretch:normal;text-align:start;writing-mode:lr-tb;text-anchor:start;font-family:Future;-inkscape-font-specification:Future Thin"
         id="path3040" />
      <path
         d="m 89.010875,49.618646 0.216,-0.072 c -5e-6,4.2e-5 -5e-6,4.2e-5 0,0 -5e-6,-0.04796 0.02399,-0.09596 0.072,-0.144 -5e-6,-0.04796 -5e-6,-0.07196 0,-0.072 0.048,-0.04796 0.072,-0.07196 0.072,-0.072 -5e-6,-0.04796 -5e-6,-0.07196 0,-0.072 0.048,-0.04796 0.072,-0.07196 0.072,-0.072 -5e-6,4.3e-5 -5e-6,4.3e-5 0,0 0.048,-0.04796 0.096,-0.07196 0.144,-0.072 -5e-6,4.3e-5 -5e-6,4.3e-5 0,0 0.048,-0.04796 0.09599,-0.07196 0.144,-0.072 0.048,-0.04796 0.072,-0.07196 0.072,-0.072 0.048,4.3e-5 0.096,4.3e-5 0.144,0 l 3.384,-0.072 c 0.04799,0.04804 0.07199,0.07204 0.072,0.072 0.04799,4.3e-5 0.07199,4.3e-5 0.072,0 0.09599,4.3e-5 0.167991,0.02404 0.216,0.072 0.09599,0.04804 0.167991,0.09604 0.216,0.144 -9e-6,4.3e-5 -9e-6,0.02404 0,0.072 0.04799,0.04804 0.07199,0.09604 0.072,0.144 -9e-6,4.2e-5 -9e-6,0.02404 0,0.072 -9e-6,4.2e-5 -9e-6,4.2e-5 0,0 0.04799,0.04804 0.07199,0.09604 0.072,0.144 -1e-5,4.2e-5 -1e-5,0.02404 0,0.072 l 0,16.344 c -1e-5,0.528025 0.09599,0.936025 0.288,1.224 0.23999,0.288024 0.50399,0.576024 0.792,0.864 0.09599,0.04802 0.167989,0.120023 0.216,0.216 0.04799,0.04802 0.119989,0.09602 0.216,0.144 0.143989,0.144023 0.287989,0.312023 0.432,0.504 0.143988,0.144023 0.287988,0.312022 0.432,0.504 0.143988,0.192022 0.287988,0.384022 0.432,0.576 0.191987,0.192021 0.359987,0.360021 0.504,0.504 0.04799,0.04802 0.09599,0.09602 0.144,0.144 0.04799,2.1e-5 0.07199,0.02402 0.072,0.072 0.335987,0.336021 0.623986,0.69602 0.864,1.08 0.287986,0.33602 0.431986,0.768019 0.432,1.296 l 0,13.464 c -1.4e-5,0.096 -1.4e-5,0.168005 0,0.216 -1.4e-5,5e-6 -1.4e-5,5e-6 0,0 -1.4e-5,0.09601 0.02399,0.192005 0.072,0.288 0.04799,0.04801 0.09599,0.09601 0.144,0.144 -1.5e-5,4e-6 0.02398,0.024 0.072,0.072 0.04798,4e-6 0.09598,4e-6 0.144,0 -1.5e-5,4e-6 -1.5e-5,4e-6 0,0 0.04798,4e-6 0.07198,4e-6 0.072,0 0.04799,0.048 0.07199,0.072 0.072,0.072 0.04798,4e-6 0.09598,4e-6 0.144,0 l 12.960005,-0.072 c 0.048,0.048 0.072,0.072 0.072,0.072 0.048,4e-6 0.072,4e-6 0.072,0 0.096,4e-6 0.16797,0.024 0.21599,0.072 0.096,0.048 0.16798,0.096 0.21601,0.144 -3e-5,4e-6 -3e-5,0.024 0,0.072 0.048,0.048 0.072,0.096 0.072,0.144 -3e-5,4e-6 -3e-5,0.024 0,0.072 -3e-5,4e-6 -3e-5,4e-6 0,0 0.048,0.048 0.072,0.096 0.072,0.144 -3e-5,4e-6 -3e-5,0.024 0,0.072 l 0,3.312 c -3e-5,0.096 -3e-5,0.168 0,0.216 -3e-5,0 -0.024,0.024 -0.072,0.072 -3e-5,0 -3e-5,0.024 0,0.072 -3e-5,0 -3e-5,0 0,0 -3e-5,0.048 -0.024,0.096 -0.072,0.144 -3e-5,0.048 -3e-5,0.072 0,0.072 -0.048,0.048 -0.12003,0.096 -0.21601,0.144 -0.048,0 -0.12002,0 -0.21599,0 -3e-5,0 -0.024,0 -0.072,0 -2e-5,0 -0.024,0 -0.072,0 l -18.576005,0 c -0.720009,0 -1.368008,-0.096 -1.944,-0.288 -0.528007,-0.24 -1.056006,-0.6 -1.584,-1.08 -0.480005,-0.479999 -0.840005,-0.983998 -1.08,-1.512 -0.240005,-0.575997 -0.360004,-1.199996 -0.36,-1.872 l 0,-37.728 0,0"
         style="font-size:72px;font-variant:normal;font-weight:100;font-stretch:normal;text-align:start;writing-mode:lr-tb;text-anchor:start;font-family:Future;-inkscape-font-specification:Future Thin"
         id="path3042" />
      <path
         d="m 132.8375,73.810646 0,16.992 c -1e-5,0.240001 -0.024,0.456 -0.072,0.648 -1e-5,0.144 -0.048,0.264 -0.144,0.36 -0.048,0.096 -0.12001,0.168 -0.216,0.216 -0.096,0.048 -0.21601,0.072 -0.36,0.072 -0.048,0 -0.096,0 -0.144,0 -1e-5,0 -0.024,0 -0.072,0 l -3.672,0 c -0.72001,0 -1.39201,-0.096 -2.016,-0.288 -0.62401,-0.24 -1.17601,-0.6 -1.656,-1.08 -0.048,-0.048 -0.12001,-0.096 -0.216,-0.144 -0.048,-0.096 -0.096,-0.191999 -0.144,-0.288 -0.33601,-0.383998 -0.60001,-0.767998 -0.792,-1.152 -0.144,-0.431997 -0.216,-0.935997 -0.216,-1.512 l 0,-14.976 c 0,-0.62398 0.168,-1.15198 0.504,-1.584 0.38399,-0.431979 0.83999,-0.839979 1.368,-1.224 0.096,-0.09598 0.19199,-0.167978 0.288,-0.216 0.096,-0.09598 0.19199,-0.167978 0.288,-0.216 0.096,-0.04798 0.16799,-0.09598 0.216,-0.144 0.096,-0.09598 0.19199,-0.167977 0.288,-0.216 0.43199,-0.383977 0.83999,-0.815977 1.224,-1.296 0.43199,-0.479976 0.64799,-1.055975 0.648,-1.728 l 0,-12.312 c -1e-5,-0.671961 0.096,-1.295961 0.288,-1.872 0.23999,-0.57596 0.59999,-1.103959 1.08,-1.584 0.47999,-0.431958 1.00799,-0.743958 1.584,-0.936 0.57599,-0.239957 1.19999,-0.359957 1.872,-0.36 l 14.472,-0.072 c 0.71997,0.04804 1.39197,0.144043 2.016,0.288 0.62397,0.09604 1.17597,0.408042 1.656,0.936 0.52797,0.480041 0.83997,1.032041 0.936,1.656 0.14397,0.624039 0.21597,1.296039 0.216,2.016 l 0,12.96 c -3e-5,0.624024 0.19197,1.104024 0.576,1.44 0.43197,0.336023 0.86396,0.648023 1.296,0.936 0.096,0.04802 0.16796,0.09602 0.216,0.144 0.096,0.04802 0.19196,0.09602 0.288,0.144 0.096,0.04802 0.19196,0.120022 0.288,0.216 0.14396,0.09602 0.26396,0.168022 0.36,0.216 0.43196,0.336021 0.81596,0.720021 1.152,1.152 0.38396,0.43202 0.57596,0.93602 0.576,1.512 l 0,18.576 c -4e-5,0.096 -0.024,0.168 -0.072,0.216 -4e-5,0.048 -4e-5,0.096 0,0.144 -4e-5,0.048 -0.024,0.096 -0.072,0.144 -4e-5,0 -4e-5,0 0,0 -0.048,0.096 -0.096,0.168 -0.144,0.216 -4e-5,0 -4e-5,0.024 0,0.072 -0.048,0.048 -0.12004,0.096 -0.216,0.144 -0.096,0.048 -0.19204,0.072 -0.288,0.072 l -3.24,0 c -0.096,0 -0.19203,-0.024 -0.288,-0.072 -0.096,-0.048 -0.16803,-0.096 -0.216,-0.144 -3e-5,-0.048 -0.024,-0.072 -0.072,-0.072 -3e-5,-0.048 -0.024,-0.096 -0.072,-0.144 -3e-5,-0.048 -0.024,-0.072 -0.072,-0.072 -3e-5,-0.048 -3e-5,-0.096 0,-0.144 -0.048,-0.048 -0.072,-0.072 -0.072,-0.072 -3e-5,-0.048 -3e-5,-0.096 0,-0.144 l 0,-17.496 c -3e-5,-0.04798 -0.024,-0.119982 -0.072,-0.216 -3e-5,-0.143982 -0.024,-0.239982 -0.072,-0.288 -0.048,-0.09598 -0.12003,-0.167981 -0.216,-0.216 -0.096,-0.04798 -0.19203,-0.07198 -0.288,-0.072 l -17.712,-0.072 c -0.048,0.04802 -0.096,0.07202 -0.144,0.072 -0.048,1.9e-5 -0.072,0.02402 -0.072,0.072 -0.096,1.9e-5 -0.19201,0.02402 -0.288,0.072 -0.048,0.04802 -0.096,0.09602 -0.144,0.144 -1e-5,0.04802 -0.024,0.120018 -0.072,0.216 -1e-5,0.04802 -0.024,0.120018 -0.072,0.216 -1e-5,0.04802 -1e-5,0.09602 0,0.144 -1e-5,1.8e-5 -1e-5,0.02402 0,0.072 l 0,-0.072 m 0.216,-5.976 c 0.048,0.09602 0.096,0.168024 0.144,0.216 0.096,2.4e-5 0.19199,0.02402 0.288,0.072 0.048,2.4e-5 0.072,2.4e-5 0.072,0 0.048,2.4e-5 0.096,2.4e-5 0.144,0 l 12.384,-0.072 c 0.14397,0.04802 0.26397,0.04802 0.36,0 0.14397,-0.09598 0.26397,-0.191976 0.36,-0.288 -3e-5,2.4e-5 -3e-5,2.4e-5 0,0 0.048,-0.04798 0.096,-0.09598 0.144,-0.144 -3e-5,-0.04798 0.024,-0.09598 0.072,-0.144 0.048,-0.04798 0.072,-0.09598 0.072,-0.144 0.048,-0.04798 0.072,-0.07198 0.072,-0.072 -3e-5,-0.04798 -3e-5,-0.09598 0,-0.144 l 0,-12.456 c -3e-5,3.7e-5 -3e-5,3.7e-5 0,0 -3e-5,-0.04796 -0.024,-0.09596 -0.072,-0.144 -3e-5,-0.04796 -0.024,-0.07196 -0.072,-0.072 -3e-5,-0.04796 -3e-5,-0.09596 0,-0.144 -0.048,-0.04796 -0.096,-0.07196 -0.144,-0.072 -3e-5,-0.04796 -3e-5,-0.09596 0,-0.144 -3e-5,3.8e-5 -0.024,3.8e-5 -0.072,0 -3e-5,-0.04796 -3e-5,-0.09596 0,-0.144 -0.048,3.8e-5 -0.096,-0.02396 -0.144,-0.072 -0.048,-0.04796 -0.12003,-0.07196 -0.216,-0.072 -3e-5,-0.04796 -0.024,-0.07196 -0.072,-0.072 -0.048,3.8e-5 -0.096,3.8e-5 -0.144,0 l -12.456,-0.072 c -0.048,0.04804 -0.096,0.07204 -0.144,0.072 -0.048,3.8e-5 -0.096,3.8e-5 -0.144,0 -0.096,0.04804 -0.19201,0.09604 -0.288,0.144 -0.048,3.8e-5 -0.096,0.02404 -0.144,0.072 -0.048,0.04804 -0.096,0.120038 -0.144,0.216 -1e-5,0.04804 -0.024,0.120037 -0.072,0.216 -1e-5,0.04804 -1e-5,0.09604 0,0.144 -1e-5,3.7e-5 -1e-5,0.02404 0,0.072 l 0,12.672 c -1e-5,0.144024 0.024,0.264024 0.072,0.36 0.048,0.09602 0.096,0.192024 0.144,0.288 l 0,-0.072"
         style="font-size:72px;font-variant:normal;font-weight:100;font-stretch:normal;text-align:start;writing-mode:lr-tb;text-anchor:start;font-family:Future;-inkscape-font-specification:Future Thin"
         id="path3044" />
      <path
         d="m 188.76013,66.682646 c -0.24003,0.336025 -0.52803,0.576024 -0.86401,0.72 -0.28802,0.144024 -0.60002,0.264024 -0.936,0.36 -0.14402,0.04802 -0.31202,0.120024 -0.50399,0.216 -0.14403,0.04802 -0.31203,0.09602 -0.50401,0.144 -2e-5,2.4e-5 -0.024,2.4e-5 -0.072,0 -0.048,2.4e-5 -0.096,0.02402 -0.14399,0.072 -0.096,2.3e-5 -0.16803,0.02402 -0.21601,0.072 -0.048,2.3e-5 -0.072,0.02402 -0.072,0.072 -0.048,0.04802 -0.096,0.120023 -0.144,0.216 -2e-5,0.04802 -2e-5,0.09602 0,0.144 -2e-5,0.04802 -2e-5,0.120023 0,0.216 -2e-5,0.04802 -2e-5,0.09602 0,0.144 l 0,22.32 c -2e-5,0.096 -2e-5,0.168 0,0.216 -2e-5,0 -2e-5,0 0,0 -2e-5,0.096 -0.024,0.192 -0.072,0.288 -0.048,0.048 -0.096,0.096 -0.144,0.144 -2e-5,0 -0.024,0.024 -0.072,0.072 -0.048,0 -0.096,0 -0.144,0 -2e-5,0 -0.024,0 -0.072,0 -2e-5,0 -2e-5,0 0,0 -0.048,0 -0.096,0 -0.144,0 -2e-5,0 -0.024,0 -0.072,0 l -4.248,0 c -0.72001,0 -1.36801,-0.096 -1.944,-0.288 -0.57601,-0.24 -1.10401,-0.6 -1.584,-1.08 -0.48001,-0.527999 -0.81601,-1.055998 -1.008,-1.584 -0.14401,-0.527997 -0.21601,-1.127996 -0.216,-1.8 l 0,-18.36 c -1e-5,-0.04798 -0.024,-0.119977 -0.072,-0.216 -1e-5,-0.143977 -0.048,-0.239977 -0.144,-0.288 -0.048,-0.04798 -0.12001,-0.07198 -0.216,-0.072 -0.048,-0.04798 -0.096,-0.09598 -0.144,-0.144 -0.096,2.3e-5 -0.19201,2.3e-5 -0.288,0 -0.048,2.3e-5 -0.096,2.3e-5 -0.144,0 -0.67201,-0.191976 -1.34401,-0.335976 -2.016,-0.432 -0.67201,-0.09598 -1.296,-0.215976 -1.87199,-0.36 -0.62401,-0.09598 -1.22401,-0.191976 -1.80001,-0.288 -0.528,-0.09597 -1.008,-0.239975 -1.44,-0.432 -0.624,-0.239975 -1.032,-0.623974 -1.22399,-1.152 -0.14401,-0.575973 -0.21601,-1.199973 -0.21601,-1.872 0,-0.09597 0,-0.167972 0,-0.216 0,-0.09597 0,-0.191972 0,-0.288 l 0,-13.608 c 0,4.2e-5 0,4.2e-5 0,0 0,-0.04796 0.024,-0.09596 0.072,-0.144 0,-0.04796 0,-0.07196 0,-0.072 0.048,-0.04796 0.072,-0.07196 0.072,-0.072 0,-0.04796 0,-0.07196 0,-0.072 0.048,-0.04796 0.072,-0.07196 0.072,-0.072 -1e-5,4.2e-5 -1e-5,4.2e-5 0,0 0.048,-0.04796 0.096,-0.07196 0.14399,-0.072 0,4.3e-5 0,4.3e-5 0,0 0.048,-0.04796 0.096,-0.07196 0.144,-0.072 0.048,-0.04796 0.072,-0.07196 0.072,-0.072 0.048,4.3e-5 0.096,4.3e-5 0.144,0 l 3.456,-0.072 c 0.048,0.04804 0.072,0.07204 0.072,0.072 0.048,4.3e-5 0.072,4.3e-5 0.072,0 0.096,4.3e-5 0.168,0.02404 0.216,0.072 0.096,0.04804 0.168,0.09604 0.216,0.144 0,4.2e-5 0,0.02404 0,0.072 0.048,0.04804 0.072,0.09604 0.072,0.144 0,4.2e-5 0,0.02404 0,0.072 0,4.2e-5 0,4.2e-5 0,0 0.048,0.04804 0.072,0.09604 0.072,0.144 0,4.2e-5 0,0.02404 0,0.072 l 0,8.712 c 0,1.488032 0.59999,2.640031 1.8,3.456 1.24799,0.768029 2.59199,1.248029 4.032,1.44 0.23999,2.8e-5 0.47999,0.02403 0.72,0.072 0.23999,2.8e-5 0.47999,2.8e-5 0.72001,0 0.19198,2.8e-5 0.35998,2.8e-5 0.50399,0 0.19199,2.8e-5 0.35999,-0.02397 0.504,-0.072 1.53599,-0.143971 2.92798,-0.599971 4.176,-1.368 1.24798,-0.815969 1.87198,-1.967968 1.872,-3.456 l 0,-8.856 c -2e-5,4.2e-5 -2e-5,4.2e-5 0,0 -2e-5,-0.04796 0.024,-0.09596 0.072,-0.144 -2e-5,-0.04796 -2e-5,-0.07196 0,-0.072 0.048,-0.04796 0.072,-0.07196 0.072,-0.072 -2e-5,-0.04796 -2e-5,-0.07196 0,-0.072 0.048,-0.04796 0.072,-0.07196 0.072,-0.072 -2e-5,4.2e-5 -2e-5,4.2e-5 0,0 0.048,-0.04796 0.096,-0.07196 0.144,-0.072 -2e-5,4.3e-5 -2e-5,4.3e-5 0,0 0.048,-0.04796 0.096,-0.07196 0.14401,-0.072 0.048,-0.04796 0.072,-0.07196 0.072,-0.072 0.048,4.3e-5 0.096,4.3e-5 0.144,0 l 3.384,-0.072 c 0.048,0.04804 0.072,0.07204 0.072,0.072 0.048,4.3e-5 0.072,4.3e-5 0.072,0 0.096,4.3e-5 0.16798,0.02404 0.216,0.072 0.096,0.04804 0.16798,0.09604 0.216,0.144 -2e-5,4.2e-5 -2e-5,0.02404 0,0.072 0.048,0.04804 0.072,0.09604 0.072,0.144 -2e-5,4.2e-5 -2e-5,0.02404 0,0.072 -2e-5,4.2e-5 -2e-5,4.2e-5 0,0 0.048,0.04804 0.072,0.09604 0.072,0.144 -2e-5,4.2e-5 -2e-5,0.02404 0,0.072 l 0,12.96 c -2e-5,0.816028 -0.096,1.584027 -0.288,2.304 -0.14402,0.672026 -0.48002,1.272025 -1.00799,1.8 l 0,-0.072"
         style="font-size:72px;font-variant:normal;font-weight:100;font-stretch:normal;text-align:start;writing-mode:lr-tb;text-anchor:start;font-family:Future;-inkscape-font-specification:Future Thin"
         id="path3046" />
      <path
         d="m 221.67987,92.098646 -18.576,0 c -0.72,0 -1.368,-0.096 -1.944,-0.288 -0.576,-0.24 -1.104,-0.6 -1.584,-1.08 -0.48,-0.527999 -0.816,-1.055998 -1.00799,-1.584 -0.14401,-0.527997 -0.21601,-1.127996 -0.21601,-1.8 l 0,-33.552 c 0,-0.671961 0.096,-1.295961 0.288,-1.872 0.24,-0.62396 0.6,-1.175959 1.08,-1.656 0.48,-0.431958 0.984,-0.743958 1.512,-0.936 0.576,-0.239957 1.2,-0.359957 1.872,-0.36 l 18.576,-0.072 c 0.048,0.04804 0.072,0.07204 0.072,0.072 0.048,4.3e-5 0.072,4.3e-5 0.072,0 0.096,4.3e-5 0.16798,0.02404 0.216,0.072 0.096,0.04804 0.16798,0.09604 0.216,0.144 -2e-5,4.2e-5 -2e-5,0.02404 0,0.072 0.048,0.04804 0.072,0.09604 0.072,0.144 -2e-5,4.2e-5 -2e-5,0.02404 0,0.072 -2e-5,4.2e-5 -2e-5,4.2e-5 0,0 0.048,0.04804 0.072,0.09604 0.072,0.144 -2e-5,4.2e-5 -2e-5,0.02404 0,0.072 l 0,3.312 c -2e-5,0.09604 -2e-5,0.168038 0,0.216 -2e-5,3.8e-5 -0.024,0.02404 -0.072,0.072 -2e-5,3.8e-5 -2e-5,0.02404 0,0.072 -2e-5,3.8e-5 -2e-5,3.8e-5 0,0 -2e-5,0.04804 -0.024,0.09604 -0.072,0.144 -2e-5,0.04804 -2e-5,0.07204 0,0.072 -0.048,0.04804 -0.12002,0.09604 -0.216,0.144 -0.048,0.04804 -0.12002,0.07204 -0.216,0.072 -2e-5,3.8e-5 -0.024,3.8e-5 -0.072,0 -2e-5,3.8e-5 -0.024,3.8e-5 -0.072,0 l -17.712,-0.072 c -0.048,0.04804 -0.096,0.07204 -0.144,0.072 -1e-5,3.8e-5 -0.024,0.02404 -0.072,0.072 -0.048,3.8e-5 -0.096,0.02404 -0.144,0.072 0,3.8e-5 0,3.8e-5 0,0 -0.048,3.8e-5 -0.096,0.02404 -0.144,0.072 0,3.8e-5 0,3.8e-5 0,0 0,3.8e-5 -0.024,0.02404 -0.072,0.072 0,3.8e-5 0,0.02404 0,0.072 0,3.8e-5 -0.024,0.02404 -0.072,0.072 0,3.7e-5 0,0.02404 0,0.072 -0.048,0.04804 -0.072,0.09604 -0.072,0.144 0,3.7e-5 0,0.02404 0,0.072 l 0,12.888 c 0,0.09602 0,0.168024 0,0.216 0,2.4e-5 0,2.4e-5 0,0 0,0.09602 0.024,0.192024 0.072,0.288 0.048,0.04802 0.096,0.09602 0.144,0.144 0,2.4e-5 0.024,0.02402 0.072,0.072 0.048,2.4e-5 0.096,2.4e-5 0.144,0 -1e-5,2.4e-5 -1e-5,2.4e-5 0,0 0.048,2.4e-5 0.072,2.4e-5 0.072,0 0.048,0.04802 0.072,0.07202 0.072,0.072 0.048,2.3e-5 0.096,2.3e-5 0.144,0 l 12.96,-0.072 c 0.048,0.04802 0.072,0.07202 0.072,0.072 0.048,2.3e-5 0.072,2.3e-5 0.072,0 0.096,2.3e-5 0.16798,0.02402 0.216,0.072 0.096,0.04802 0.16798,0.09602 0.216,0.144 -2e-5,2.3e-5 -2e-5,0.02402 0,0.072 0.048,0.04802 0.072,0.09602 0.072,0.144 -2e-5,2.3e-5 -2e-5,0.02402 0,0.072 -2e-5,2.3e-5 -2e-5,2.3e-5 0,0 0.048,0.04802 0.072,0.09602 0.072,0.144 -2e-5,2.3e-5 -2e-5,0.02402 0,0.072 l 0,3.24 c -2e-5,0.09602 -2e-5,0.168019 0,0.216 -2e-5,1.9e-5 -0.024,0.02402 -0.072,0.072 -2e-5,1.9e-5 -2e-5,0.02402 0,0.072 -2e-5,1.9e-5 -2e-5,1.9e-5 0,0 -2e-5,0.04802 -0.024,0.09602 -0.072,0.144 -2e-5,0.04802 -2e-5,0.07202 0,0.072 -0.048,0.04802 -0.12002,0.09602 -0.216,0.144 -0.048,0.04802 -0.12002,0.07202 -0.216,0.072 -2e-5,1.9e-5 -0.024,1.9e-5 -0.072,0 -2e-5,1.9e-5 -0.024,1.9e-5 -0.072,0 l -8.28,-0.072 c -0.048,0.04802 -0.096,0.07202 -0.144,0.072 -1e-5,1.9e-5 -0.024,0.02402 -0.072,0.072 -0.048,1.9e-5 -0.096,0.02402 -0.14399,0.072 -2e-5,1.9e-5 -2e-5,1.9e-5 0,0 -0.048,1.9e-5 -0.096,0.02402 -0.14401,0.072 -1e-5,1.8e-5 -1e-5,1.8e-5 0,0 -1e-5,1.8e-5 -0.024,0.02402 -0.072,0.072 -1e-5,1.8e-5 -1e-5,0.02402 0,0.072 -1e-5,1.8e-5 -0.024,0.02402 -0.072,0.072 -10e-6,1.8e-5 -10e-6,0.02402 0,0.072 -0.048,0.04802 -0.072,0.09602 -0.072,0.144 -1e-5,1.8e-5 -1e-5,0.02402 0,0.072 l 0.072,12.888 c -10e-6,0.096 -10e-6,0.168005 0,0.216 -10e-6,5e-6 -10e-6,5e-6 0,0 -10e-6,0.09601 0.024,0.192005 0.072,0.288 0.048,0.04801 0.096,0.09601 0.144,0.144 -1e-5,4e-6 0.024,0.024 0.072,0.072 0.048,4e-6 0.096,4e-6 0.14399,0 -1e-5,4e-6 -1e-5,4e-6 0,0 0.048,4e-6 0.072,4e-6 0.072,0 0.048,0.048 0.072,0.072 0.072,0.072 0.048,4e-6 0.096,4e-6 0.144,0 l 12.96,-0.072 c 0.048,0.048 0.072,0.072 0.072,0.072 0.048,4e-6 0.072,4e-6 0.072,0 0.096,4e-6 0.16798,0.024 0.216,0.072 0.096,0.048 0.16798,0.096 0.216,0.144 -2e-5,4e-6 -2e-5,0.024 0,0.072 0.048,0.048 0.072,0.096 0.072,0.144 -2e-5,4e-6 -2e-5,0.024 0,0.072 -2e-5,4e-6 -2e-5,4e-6 0,0 0.048,0.048 0.072,0.096 0.072,0.144 -2e-5,4e-6 -2e-5,0.024 0,0.072 l 0,3.312 c -2e-5,0.096 -2e-5,0.168 0,0.216 -2e-5,0 -0.024,0.024 -0.072,0.072 -2e-5,0 -2e-5,0.024 0,0.072 -2e-5,0 -2e-5,0 0,0 -2e-5,0.048 -0.024,0.096 -0.072,0.144 -2e-5,0.048 -2e-5,0.072 0,0.072 -0.048,0.048 -0.12002,0.096 -0.216,0.144 -0.048,0 -0.12002,0 -0.216,0 -2e-5,0 -0.024,0 -0.072,0 -2e-5,0 -0.024,0 -0.072,0 l 0,0"
         style="font-size:72px;font-variant:normal;font-weight:100;font-stretch:normal;text-align:start;writing-mode:lr-tb;text-anchor:start;font-family:Future;-inkscape-font-specification:Future Thin"
         id="path3048" />
      <path
         d="m 232.2425,87.562646 0,-33.84 c 0,-0.671961 0.096,-1.295961 0.288,-1.872 0.23999,-0.57596 0.59999,-1.103959 1.08,-1.584 0.47999,-0.431958 1.00799,-0.743958 1.584,-0.936 0.57599,-0.239957 1.19999,-0.359957 1.872,-0.36 l 19.296,-0.072 c 0.71997,0.04804 1.39197,0.144043 2.016,0.288 0.62397,0.09604 1.17597,0.408042 1.656,0.936 0.52797,0.480041 0.83997,1.032041 0.936,1.656 0.14397,0.624039 0.21597,1.296039 0.216,2.016 l 0,12.96 c -3e-5,0.624024 0.19197,1.104024 0.576,1.44 0.43197,0.336023 0.86396,0.648023 1.296,0.936 0.096,0.04802 0.16796,0.09602 0.216,0.144 0.096,0.04802 0.19196,0.09602 0.288,0.144 0.096,0.04802 0.19196,0.120022 0.288,0.216 0.14396,0.09602 0.26396,0.168022 0.36,0.216 0.43196,0.336021 0.81596,0.720021 1.152,1.152 0.38396,0.43202 0.57596,0.93602 0.576,1.512 l 0,18.576 c -4e-5,0.096 -0.024,0.168 -0.072,0.216 -4e-5,0.048 -4e-5,0.096 0,0.144 -4e-5,0.048 -0.024,0.096 -0.072,0.144 -4e-5,0 -4e-5,0 0,0 -0.048,0.096 -0.096,0.168 -0.144,0.216 -4e-5,0 -4e-5,0.024 0,0.072 -0.048,0.048 -0.12004,0.096 -0.216,0.144 -0.096,0.048 -0.19204,0.072 -0.288,0.072 l -3.24,0 c -0.096,0 -0.19203,-0.024 -0.288,-0.072 -0.096,-0.048 -0.16803,-0.096 -0.216,-0.144 -3e-5,-0.048 -0.024,-0.072 -0.072,-0.072 -3e-5,-0.048 -0.024,-0.096 -0.072,-0.144 -3e-5,-0.048 -0.024,-0.072 -0.072,-0.072 -3e-5,-0.048 -3e-5,-0.096 0,-0.144 -0.048,-0.048 -0.072,-0.072 -0.072,-0.072 -3e-5,-0.048 -3e-5,-0.096 0,-0.144 l 0,-17.496 c -3e-5,-0.04798 -0.024,-0.119982 -0.072,-0.216 -3e-5,-0.143982 -0.024,-0.239982 -0.072,-0.288 -0.048,-0.09598 -0.12003,-0.167981 -0.216,-0.216 -0.096,-0.04798 -0.19203,-0.07198 -0.288,-0.072 l -17.712,-0.072 c -0.048,0.04802 -0.096,0.07202 -0.144,0.072 -0.048,1.9e-5 -0.072,0.02402 -0.072,0.072 -0.096,1.9e-5 -0.19201,0.02402 -0.288,0.072 -0.048,0.04802 -0.096,0.09602 -0.144,0.144 -1e-5,0.04802 -0.024,0.120018 -0.072,0.216 -1e-5,0.04802 -0.024,0.120018 -0.072,0.216 -1e-5,0.04802 -1e-5,0.09602 0,0.144 -1e-5,1.8e-5 -1e-5,0.02402 0,0.072 l 0,16.92 c -1e-5,0.240001 -0.024,0.456 -0.072,0.648 -1e-5,0.144 -0.048,0.264 -0.144,0.36 -0.048,0.096 -0.12001,0.168 -0.216,0.216 -0.096,0.048 -0.21601,0.072 -0.36,0.072 -0.048,0 -0.096,0 -0.144,0 -1e-5,0 -0.024,0 -0.072,0 l -3.672,0 c -0.72001,0 -1.39201,-0.096 -2.016,-0.288 -0.62401,-0.24 -1.17601,-0.6 -1.656,-1.08 -0.048,-0.048 -0.12001,-0.096 -0.216,-0.144 -0.048,-0.096 -0.096,-0.191999 -0.144,-0.288 -0.33601,-0.383998 -0.60001,-0.767998 -0.792,-1.152 -0.144,-0.431997 -0.216,-0.935997 -0.216,-1.512 l 0,-0.072 m 5.112,-19.728 c 0.048,0.09602 0.096,0.168024 0.144,0.216 0.096,2.4e-5 0.19199,0.02402 0.288,0.072 0.048,2.4e-5 0.072,2.4e-5 0.072,0 0.048,2.4e-5 0.096,2.4e-5 0.144,0 l 17.208,-0.072 c 0.14397,0.04802 0.26397,0.04802 0.36,0 0.14397,-0.09598 0.26397,-0.191976 0.36,-0.288 -3e-5,2.4e-5 -3e-5,2.4e-5 0,0 0.048,-0.04798 0.096,-0.09598 0.144,-0.144 -3e-5,-0.04798 0.024,-0.09598 0.072,-0.144 0.048,-0.04798 0.072,-0.09598 0.072,-0.144 0.048,-0.04798 0.072,-0.07198 0.072,-0.072 -3e-5,-0.04798 -3e-5,-0.09598 0,-0.144 l 0,-12.456 c -3e-5,3.7e-5 -3e-5,3.7e-5 0,0 -3e-5,-0.04796 -0.024,-0.09596 -0.072,-0.144 -3e-5,-0.04796 -0.024,-0.07196 -0.072,-0.072 -3e-5,-0.04796 -3e-5,-0.09596 0,-0.144 -0.048,-0.04796 -0.096,-0.07196 -0.144,-0.072 -3e-5,-0.04796 -3e-5,-0.09596 0,-0.144 -3e-5,3.8e-5 -0.024,3.8e-5 -0.072,0 -3e-5,-0.04796 -3e-5,-0.09596 0,-0.144 -0.048,3.8e-5 -0.096,-0.02396 -0.144,-0.072 -0.048,-0.04796 -0.12003,-0.07196 -0.216,-0.072 -3e-5,-0.04796 -0.024,-0.07196 -0.072,-0.072 -0.048,3.8e-5 -0.096,3.8e-5 -0.144,0 l -17.28,-0.072 c -0.048,0.04804 -0.096,0.07204 -0.144,0.072 -0.048,3.8e-5 -0.096,3.8e-5 -0.144,0 -0.096,0.04804 -0.19201,0.09604 -0.288,0.144 -0.048,3.8e-5 -0.096,0.02404 -0.144,0.072 -0.048,0.04804 -0.096,0.120038 -0.144,0.216 -1e-5,0.04804 -0.024,0.120037 -0.072,0.216 -1e-5,0.04804 -1e-5,0.09604 0,0.144 -1e-5,3.7e-5 -1e-5,0.02404 0,0.072 l 0,12.672 c -1e-5,0.144024 0.024,0.264024 0.072,0.36 0.048,0.09602 0.096,0.192024 0.144,0.288 l 0,-0.072"
         style="font-size:72px;font-variant:normal;font-weight:100;font-stretch:normal;text-align:start;writing-mode:lr-tb;text-anchor:start;font-family:Future;-inkscape-font-specification:Future Thin"
         id="path3050" />
      <path
         d="m 321.93313,53.650646 0,33.696 c -4e-5,0.672004 -0.096,1.296003 -0.28801,1.872 -0.19203,0.528002 -0.48003,1.032001 -0.864,1.512 -0.48003,0.528 -1.03203,0.888 -1.65599,1.08 -0.57604,0.192 -1.22403,0.288 -1.94401,0.288 l -19.29599,0 c -0.72001,0 -1.36801,-0.096 -1.94401,-0.288 -0.576,-0.24 -1.104,-0.6 -1.584,-1.08 -0.48,-0.527999 -0.816,-1.055998 -1.00799,-1.584 -0.14401,-0.527997 -0.21601,-1.127996 -0.21601,-1.8 l 0,-33.624 c 0,-0.671961 0.096,-1.295961 0.28801,-1.872 0.19199,-0.62396 0.52799,-1.175959 1.00799,-1.656 0.48,-0.431958 0.984,-0.743958 1.512,-0.936 0.576,-0.239957 1.2,-0.359957 1.87201,-0.36 l 19.29599,-0.072 c 0.71998,0.04804 1.36797,0.168043 1.94401,0.36 0.62396,0.192042 1.17596,0.552042 1.65599,1.08 0.43197,0.480041 0.74397,1.00804 0.936,1.584 0.19197,0.576039 0.28797,1.200039 0.28801,1.872 l 0,-0.072 m -4.75201,32.904 0,-22.536 c -2e-5,2.8e-5 -2e-5,2.8e-5 0,0 -2e-5,-0.04797 -0.024,-0.09597 -0.072,-0.144 -2e-5,2.8e-5 -2e-5,2.8e-5 0,0 -2e-5,-0.04797 -2e-5,-0.07197 0,-0.072 -2e-5,-0.04797 -0.024,-0.09597 -0.072,-0.144 -2e-5,-0.04797 -2e-5,-0.07197 0,-0.072 -0.048,-0.04797 -0.12002,-0.09597 -0.216,-0.144 -0.048,-0.04797 -0.12002,-0.07197 -0.216,-0.072 -2e-5,2.8e-5 -0.024,2.8e-5 -0.072,0 -2e-5,2.8e-5 -0.024,2.8e-5 -0.072,0 l -4.176,-0.072 c -0.72002,0.04803 -1.36802,-0.04797 -1.944,-0.288 -0.57602,-0.239971 -1.10402,-0.599971 -1.584,-1.08 -0.48001,-0.52797 -0.81601,-1.055969 -1.008,-1.584 -0.14401,-0.527968 -0.21601,-1.127968 -0.216,-1.8 l 0,-4.104 c -10e-6,3.7e-5 -10e-6,3.7e-5 0,0 -10e-6,-0.04796 -0.024,-0.09596 -0.072,-0.144 -10e-6,3.7e-5 -10e-6,3.7e-5 0,0 -10e-6,-0.04796 -10e-6,-0.07196 0,-0.072 -10e-6,-0.04796 -0.024,-0.09596 -0.072,-0.144 -10e-6,-0.04796 -10e-6,-0.07196 0,-0.072 -0.048,-0.04796 -0.12001,-0.09596 -0.21599,-0.144 -0.048,-0.04796 -0.12002,-0.09596 -0.216,-0.144 -2e-5,3.8e-5 -0.024,3.8e-5 -0.072,0 -2e-5,3.8e-5 -0.024,3.8e-5 -0.072,0 l -8.06401,-0.072 c -0.048,0.04804 -0.096,0.07204 -0.144,0.072 -10e-6,3.8e-5 -0.024,0.02404 -0.072,0.072 -0.048,3.8e-5 -0.096,0.02404 -0.144,0.072 0,3.8e-5 0,3.8e-5 0,0 -0.048,3.8e-5 -0.096,0.02404 -0.14399,0.072 -1e-5,3.8e-5 -1e-5,3.8e-5 0,0 -1e-5,3.8e-5 -0.024,0.02404 -0.072,0.072 -1e-5,3.8e-5 -1e-5,0.02404 0,0.072 -1e-5,3.8e-5 -0.024,0.02404 -0.072,0.072 -1e-5,3.8e-5 -1e-5,0.02404 0,0.072 -0.048,0.04804 -0.072,0.09604 -0.072,0.144 -1e-5,3.7e-5 -1e-5,0.02404 0,0.072 l 0,32.112 c -1e-5,0.096 -1e-5,0.168005 0,0.216 -1e-5,5e-6 -1e-5,5e-6 0,0 -1e-5,0.09601 0.024,0.192005 0.072,0.288 0.048,0.04801 0.096,0.09601 0.144,0.144 -1e-5,4e-6 0.024,0.024 0.072,0.072 0.048,4e-6 0.096,4e-6 0.144,0 -10e-6,4e-6 -10e-6,4e-6 0,0 0.048,4e-6 0.072,4e-6 0.072,0 0.048,0.048 0.072,0.072 0.072,0.072 0.048,4e-6 0.096,4e-6 0.144,0 l 17.712,-0.072 c 0.048,0.048 0.072,0.072 0.072,0.072 0.048,4e-6 0.096,-0.024 0.144,-0.072 -2e-5,4e-6 -2e-5,4e-6 0,0 0.048,4e-6 0.072,4e-6 0.072,0 0.048,4e-6 0.096,4e-6 0.144,0 0.048,-0.048 0.072,-0.072 0.072,-0.072 0.048,-0.048 0.096,-0.096 0.144,-0.144 0.048,-0.096 0.072,-0.191995 0.072,-0.288 -2e-5,5e-6 -2e-5,5e-6 0,0 -2e-5,-0.048 -2e-5,-0.096 0,-0.144 l 0,-0.072"
         style="font-size:72px;font-variant:normal;font-weight:100;font-stretch:normal;text-align:start;writing-mode:lr-tb;text-anchor:start;font-family:Future;-inkscape-font-specification:Future Thin"
         id="path3052" />
      <path
         d="m 358.41012,53.650646 -22.536,0 c -0.048,0.04804 -0.096,0.07204 -0.144,0.072 -10e-6,3.8e-5 -0.024,0.02404 -0.072,0.072 -0.048,3.8e-5 -0.096,0.02404 -0.144,0.072 0,3.8e-5 0,3.8e-5 0,0 -0.048,3.8e-5 -0.096,0.02404 -0.14399,0.072 -1e-5,3.8e-5 -1e-5,3.8e-5 0,0 -1e-5,3.8e-5 -0.024,0.02404 -0.072,0.072 -1e-5,3.8e-5 -1e-5,0.02404 0,0.072 -1e-5,3.8e-5 -0.024,0.02404 -0.072,0.072 -1e-5,3.8e-5 -1e-5,0.02404 0,0.072 -0.048,0.04804 -0.072,0.09604 -0.072,0.144 -1e-5,3.7e-5 -1e-5,0.02404 0,0.072 l 0,11.52 c -1e-5,0.480025 0.11999,0.888025 0.35999,1.224 0.23999,0.336024 0.50399,0.648024 0.792,0.936 0.048,0.04802 0.072,0.09602 0.072,0.144 0.048,0.04802 0.096,0.07202 0.14401,0.072 0.19198,0.192023 0.35998,0.384023 0.50399,0.576 0.14399,0.144023 0.28799,0.312022 0.432,0.504 0.14399,0.192022 0.28799,0.384022 0.432,0.576 0.19199,0.192021 0.38399,0.384021 0.576,0.576 0.048,2.1e-5 0.072,0.02402 0.072,0.072 0.048,0.04802 0.096,0.07202 0.144,0.072 0.33599,0.336021 0.62399,0.69602 0.86401,1.08 0.28798,0.33602 0.43198,0.768019 0.43199,1.296 l 0,18.288 c -10e-6,0.096 -10e-6,0.168 0,0.216 -10e-6,0 -10e-6,0 0,0 -10e-6,0.096 -0.024,0.192 -0.072,0.288 -0.048,0.048 -0.096,0.096 -0.14399,0.144 -2e-5,0 -0.024,0.024 -0.072,0.072 -0.048,0 -0.096,0 -0.144,0 -2e-5,0 -0.024,0 -0.072,0 -2e-5,0 -2e-5,0 0,0 -0.048,0 -0.096,0 -0.14401,0 -1e-5,0 -0.024,0 -0.072,0 l -3.744,0 c -0.768,0 -1.512,-0.072 -2.232,-0.216 -0.672,-0.192 -1.272,-0.576 -1.8,-1.152 -0.432,-0.527999 -0.744,-1.055998 -0.93599,-1.584 -0.19201,-0.527997 -0.28801,-1.127996 -0.28801,-1.8 l 0,-33.624 c 0,-0.671961 0.096,-1.295961 0.28801,-1.872 0.23999,-0.62396 0.59999,-1.175959 1.07999,-1.656 0.48,-0.431958 0.984,-0.743958 1.512,-0.936 0.576,-0.239957 1.2,-0.359957 1.87201,-0.36 l 24.12,-0.072 c 0.71996,0.04804 1.36796,0.168043 1.94399,0.36 0.62397,0.192042 1.17597,0.552042 1.656,1.08 0.048,0.04804 0.096,0.120041 0.144,0.216 0.048,0.04804 0.096,0.09604 0.144,0.144 0.33597,0.384041 0.57597,0.81604 0.72001,1.296 0.14396,0.432039 0.21596,1.032039 0.21599,1.8 l 0,37.368 c -3e-5,0.096 -3e-5,0.168 0,0.216 -3e-5,0.048 -0.024,0.096 -0.072,0.144 -3e-5,0.096 -0.024,0.192 -0.072,0.288 -0.048,0.048 -0.096,0.096 -0.14399,0.144 -4e-5,0 -0.024,0.024 -0.072,0.072 -4e-5,0 -4e-5,0.024 0,0.072 -0.048,0.048 -0.096,0.072 -0.144,0.072 -0.048,0 -0.16804,0 -0.36001,0 l -3.168,0 c -0.096,0 -0.19203,-0.024 -0.288,-0.072 -0.096,-0.048 -0.16803,-0.096 -0.21599,-0.144 -4e-5,-0.048 -0.024,-0.072 -0.072,-0.072 -4e-5,-0.048 -0.024,-0.096 -0.072,-0.144 -4e-5,-0.048 -0.024,-0.072 -0.072,-0.072 -4e-5,-0.048 -4e-5,-0.096 0,-0.144 -0.048,-0.048 -0.072,-0.072 -0.072,-0.072 -4e-5,-0.048 -4e-5,-0.096 0,-0.144 l 0,-36.864 c -4e-5,3.7e-5 -4e-5,3.7e-5 0,0 -4e-5,-0.04796 -0.024,-0.09596 -0.072,-0.144 -4e-5,3.7e-5 -4e-5,3.7e-5 0,0 -4e-5,-0.04796 -4e-5,-0.07196 0,-0.072 -4e-5,-0.04796 -0.024,-0.09596 -0.072,-0.144 -4e-5,-0.04796 -4e-5,-0.07196 0,-0.072 -0.048,-0.04796 -0.12004,-0.09596 -0.21601,-0.144 -0.048,-0.04796 -0.12003,-0.07196 -0.216,-0.072 -3e-5,3.8e-5 -0.024,3.8e-5 -0.072,0 -3e-5,3.8e-5 -0.024,3.8e-5 -0.072,0 l 0,-0.072"
         style="font-size:72px;font-variant:normal;font-weight:100;font-stretch:normal;text-align:start;writing-mode:lr-tb;text-anchor:start;font-family:Future;-inkscape-font-specification:Future Thin"
         id="path3054" />
      <path
         d="m 396.758,92.098646 -18.576,0 c -0.72001,0 -1.36801,-0.096 -1.944,-0.288 -0.57601,-0.24 -1.10401,-0.6 -1.584,-1.08 -0.48001,-0.527999 -0.81601,-1.055998 -1.008,-1.584 -0.144,-0.527997 -0.216,-1.127996 -0.216,-1.8 l 0,-33.552 c 0,-0.671961 0.096,-1.295961 0.288,-1.872 0.23999,-0.62396 0.59999,-1.175959 1.08,-1.656 0.47999,-0.431958 0.98399,-0.743958 1.512,-0.936 0.57599,-0.239957 1.19999,-0.359957 1.872,-0.36 l 18.576,-0.072 c 0.048,0.04804 0.072,0.07204 0.072,0.072 0.048,4.3e-5 0.072,4.3e-5 0.072,0 0.096,4.3e-5 0.16797,0.02404 0.216,0.072 0.096,0.04804 0.16797,0.09604 0.216,0.144 -3e-5,4.2e-5 -3e-5,0.02404 0,0.072 0.048,0.04804 0.072,0.09604 0.072,0.144 -3e-5,4.2e-5 -3e-5,0.02404 0,0.072 -3e-5,4.2e-5 -3e-5,4.2e-5 0,0 0.048,0.04804 0.072,0.09604 0.072,0.144 -3e-5,4.2e-5 -3e-5,0.02404 0,0.072 l 0,3.312 c -3e-5,0.09604 -3e-5,0.168038 0,0.216 -3e-5,3.8e-5 -0.024,0.02404 -0.072,0.072 -3e-5,3.8e-5 -3e-5,0.02404 0,0.072 -3e-5,3.8e-5 -3e-5,3.8e-5 0,0 -3e-5,0.04804 -0.024,0.09604 -0.072,0.144 -3e-5,0.04804 -3e-5,0.07204 0,0.072 -0.048,0.04804 -0.12003,0.09604 -0.216,0.144 -0.048,0.04804 -0.12003,0.07204 -0.216,0.072 -3e-5,3.8e-5 -0.024,3.8e-5 -0.072,0 -3e-5,3.8e-5 -0.024,3.8e-5 -0.072,0 l -17.712,-0.072 c -0.048,0.04804 -0.096,0.07204 -0.144,0.072 -10e-6,3.8e-5 -0.024,0.02404 -0.072,0.072 -0.048,3.8e-5 -0.096,0.02404 -0.144,0.072 -10e-6,3.8e-5 -10e-6,3.8e-5 0,0 -0.048,3.8e-5 -0.096,0.02404 -0.144,0.072 -10e-6,3.8e-5 -10e-6,3.8e-5 0,0 -10e-6,3.8e-5 -0.024,0.02404 -0.072,0.072 -1e-5,3.8e-5 -1e-5,0.02404 0,0.072 -1e-5,3.8e-5 -0.024,0.02404 -0.072,0.072 -1e-5,3.7e-5 -1e-5,0.02404 0,0.072 -0.048,0.04804 -0.072,0.09604 -0.072,0.144 -1e-5,3.7e-5 -1e-5,0.02404 0,0.072 l 0,12.888 c -1e-5,0.09602 -1e-5,0.168024 0,0.216 -1e-5,2.4e-5 -1e-5,2.4e-5 0,0 -1e-5,0.09602 0.024,0.192024 0.072,0.288 0.048,0.04802 0.096,0.09602 0.144,0.144 -10e-6,2.4e-5 0.024,0.02402 0.072,0.072 0.048,2.4e-5 0.096,2.4e-5 0.144,0 -10e-6,2.4e-5 -10e-6,2.4e-5 0,0 0.048,2.4e-5 0.072,2.4e-5 0.072,0 0.048,0.04802 0.072,0.07202 0.072,0.072 0.048,2.3e-5 0.096,2.3e-5 0.144,0 l 12.96,-0.072 c 0.048,0.04802 0.072,0.07202 0.072,0.072 0.048,2.3e-5 0.072,2.3e-5 0.072,0 0.096,2.3e-5 0.16798,0.02402 0.216,0.072 0.096,0.04802 0.16798,0.09602 0.216,0.144 -2e-5,2.3e-5 -2e-5,0.02402 0,0.072 0.048,0.04802 0.072,0.09602 0.072,0.144 -2e-5,2.3e-5 -2e-5,0.02402 0,0.072 -2e-5,2.3e-5 -2e-5,2.3e-5 0,0 0.048,0.04802 0.072,0.09602 0.072,0.144 -2e-5,2.3e-5 -2e-5,0.02402 0,0.072 l 0,3.24 c -2e-5,0.09602 -2e-5,0.168019 0,0.216 -2e-5,1.9e-5 -0.024,0.02402 -0.072,0.072 -2e-5,1.9e-5 -2e-5,0.02402 0,0.072 -2e-5,1.9e-5 -2e-5,1.9e-5 0,0 -2e-5,0.04802 -0.024,0.09602 -0.072,0.144 -2e-5,0.04802 -2e-5,0.07202 0,0.072 -0.048,0.04802 -0.12002,0.09602 -0.216,0.144 -0.048,0.04802 -0.12002,0.07202 -0.216,0.072 -2e-5,1.9e-5 -0.024,1.9e-5 -0.072,0 -2e-5,1.9e-5 -0.024,1.9e-5 -0.072,0 l -8.28,-0.072 c -0.048,0.04802 -0.096,0.07202 -0.144,0.072 -10e-6,1.9e-5 -0.024,0.02402 -0.072,0.072 -0.048,1.9e-5 -0.096,0.02402 -0.144,0.072 -10e-6,1.9e-5 -10e-6,1.9e-5 0,0 -0.048,1.9e-5 -0.096,0.02402 -0.144,0.072 -10e-6,1.8e-5 -10e-6,1.8e-5 0,0 -10e-6,1.8e-5 -0.024,0.02402 -0.072,0.072 -10e-6,1.8e-5 -10e-6,0.02402 0,0.072 -10e-6,1.8e-5 -0.024,0.02402 -0.072,0.072 -10e-6,1.8e-5 -10e-6,0.02402 0,0.072 -0.048,0.04802 -0.072,0.09602 -0.072,0.144 -10e-6,1.8e-5 -10e-6,0.02402 0,0.072 l 0.072,12.888 c -10e-6,0.096 -10e-6,0.168005 0,0.216 -10e-6,5e-6 -10e-6,5e-6 0,0 -10e-6,0.09601 0.024,0.192005 0.072,0.288 0.048,0.04801 0.096,0.09601 0.144,0.144 -10e-6,4e-6 0.024,0.024 0.072,0.072 0.048,4e-6 0.096,4e-6 0.144,0 -10e-6,4e-6 -10e-6,4e-6 0,0 0.048,4e-6 0.072,4e-6 0.072,0 0.048,0.048 0.072,0.072 0.072,0.072 0.048,4e-6 0.096,4e-6 0.144,0 l 12.96,-0.072 c 0.048,0.048 0.072,0.072 0.072,0.072 0.048,4e-6 0.072,4e-6 0.072,0 0.096,4e-6 0.16797,0.024 0.216,0.072 0.096,0.048 0.16797,0.096 0.216,0.144 -3e-5,4e-6 -3e-5,0.024 0,0.072 0.048,0.048 0.072,0.096 0.072,0.144 -3e-5,4e-6 -3e-5,0.024 0,0.072 -3e-5,4e-6 -3e-5,4e-6 0,0 0.048,0.048 0.072,0.096 0.072,0.144 -3e-5,4e-6 -3e-5,0.024 0,0.072 l 0,3.312 c -3e-5,0.096 -3e-5,0.168 0,0.216 -3e-5,0 -0.024,0.024 -0.072,0.072 -3e-5,0 -3e-5,0.024 0,0.072 -3e-5,0 -3e-5,0 0,0 -3e-5,0.048 -0.024,0.096 -0.072,0.144 -3e-5,0.048 -3e-5,0.072 0,0.072 -0.048,0.048 -0.12003,0.096 -0.216,0.144 -0.048,0 -0.12003,0 -0.216,0 -3e-5,0 -0.024,0 -0.072,0 -3e-5,0 -0.024,0 -0.072,0 l 0,0"
         style="font-size:72px;font-variant:normal;font-weight:100;font-stretch:normal;text-align:start;writing-mode:lr-tb;text-anchor:start;font-family:Future;-inkscape-font-specification:Future Thin"
         id="path3056" />
    </g>
  </g>
</svg>
